<svg width="14" height="16" viewBox="0 0 14 16" fill="none" xmlns="http://www.w3.org/2000/svg">
<g id="Group 25">
<path id="Subtract" fill-rule="evenodd" clip-rule="evenodd" d="M6.59423 13.35C10.1984 13.35 13.1201 10.4283 13.1201 6.82413C13.1201 3.21999 10.1984 0.298264 6.59423 0.298264C2.99009 0.298264 0.0683594 3.21999 0.0683594 6.82413C0.0683594 10.4283 2.99009 13.35 6.59423 13.35ZM6.59386 12.508C9.73295 12.508 12.2777 9.96322 12.2777 6.82414C12.2777 3.68505 9.73295 1.14031 6.59386 1.14031C3.45478 1.14031 0.910044 3.68505 0.910044 6.82414C0.910044 9.96322 3.45478 12.508 6.59386 12.508Z" fill="#D9D7D7"/>
<rect id="Rectangle 30" x="10.8721" y="11.6513" width="4.38836" height="0.859123" transform="rotate(51.9835 10.8721 11.6513)" fill="#D9D7D7"/>
</g>
</svg>
